<mxfile host="65bd71144e">
    <diagram name="PÃ¡gina-1" id="SnzrzuKSvGVmnRIXuAzR">
        <mxGraphModel dx="1387" dy="1041" grid="1" gridSize="10" guides="1" tooltips="1" connect="1" arrows="1" fold="1" page="1" pageScale="1" pageWidth="827" pageHeight="1169" math="0" shadow="0">
            <root>
                <mxCell id="0"/>
                <mxCell id="1" parent="0"/>
                <mxCell id="2" value="" style="rounded=0;whiteSpace=wrap;html=1;" vertex="1" parent="1">
                    <mxGeometry x="20" y="20" width="910" height="890" as="geometry"/>
                </mxCell>
                <mxCell id="---KHNWKHkRvu1wgQ-nq-1" value="&lt;font face=&quot;Verdana&quot;&gt;Beginning&lt;/font&gt;" style="ellipse;whiteSpace=wrap;html=1;aspect=fixed;fillColor=#dae8fc;strokeColor=#6c8ebf;" parent="1" vertex="1">
                    <mxGeometry x="180" y="90" width="80" height="80" as="geometry"/>
                </mxCell>
                <mxCell id="---KHNWKHkRvu1wgQ-nq-2" value="&lt;font face=&quot;Helvetica&quot; style=&quot;font-size: 18px;&quot;&gt;&lt;i style=&quot;&quot;&gt;&lt;b style=&quot;&quot;&gt;A&lt;/b&gt;&lt;/i&gt;&lt;/font&gt;" style="text;html=1;align=center;verticalAlign=middle;whiteSpace=wrap;rounded=0;" parent="1" vertex="1">
                    <mxGeometry x="160" y="70" width="60" height="30" as="geometry"/>
                </mxCell>
                <mxCell id="---KHNWKHkRvu1wgQ-nq-3" value="Receive Client&#39;s HTTP request&lt;div&gt;by the endpoint &lt;u&gt;/v1/chimera/aggregation/fit&lt;/u&gt;&lt;/div&gt;" style="rounded=0;whiteSpace=wrap;html=1;fillColor=#dae8fc;strokeColor=#6c8ebf;" parent="1" vertex="1">
                    <mxGeometry x="370" y="90" width="210" height="80" as="geometry"/>
                </mxCell>
                <mxCell id="---KHNWKHkRvu1wgQ-nq-4" value="Request fit to each worker through the endpoint &lt;u&gt;/v1/chimera/model/fit&lt;/u&gt;" style="rounded=0;whiteSpace=wrap;html=1;fillColor=#dae8fc;strokeColor=#6c8ebf;" parent="1" vertex="1">
                    <mxGeometry x="370" y="240" width="210" height="80" as="geometry"/>
                </mxCell>
                <mxCell id="---KHNWKHkRvu1wgQ-nq-9" value="" style="endArrow=classic;html=1;rounded=0;exitX=1;exitY=0.5;exitDx=0;exitDy=0;entryX=0;entryY=0.5;entryDx=0;entryDy=0;" parent="1" source="---KHNWKHkRvu1wgQ-nq-1" target="---KHNWKHkRvu1wgQ-nq-3" edge="1">
                    <mxGeometry width="50" height="50" relative="1" as="geometry">
                        <mxPoint x="460" y="350" as="sourcePoint"/>
                        <mxPoint x="510" y="300" as="targetPoint"/>
                    </mxGeometry>
                </mxCell>
                <mxCell id="---KHNWKHkRvu1wgQ-nq-10" value="&lt;font face=&quot;Helvetica&quot; style=&quot;font-size: 18px;&quot;&gt;&lt;i style=&quot;&quot;&gt;&lt;b style=&quot;&quot;&gt;B&lt;/b&gt;&lt;/i&gt;&lt;/font&gt;" style="text;html=1;align=center;verticalAlign=middle;whiteSpace=wrap;rounded=0;" parent="1" vertex="1">
                    <mxGeometry x="330" y="70" width="60" height="30" as="geometry"/>
                </mxCell>
                <mxCell id="---KHNWKHkRvu1wgQ-nq-11" value="" style="endArrow=classic;html=1;rounded=0;exitX=0.5;exitY=1;exitDx=0;exitDy=0;entryX=0.5;entryY=0;entryDx=0;entryDy=0;" parent="1" source="---KHNWKHkRvu1wgQ-nq-3" target="---KHNWKHkRvu1wgQ-nq-4" edge="1">
                    <mxGeometry width="50" height="50" relative="1" as="geometry">
                        <mxPoint x="390" y="350" as="sourcePoint"/>
                        <mxPoint x="450" y="270" as="targetPoint"/>
                    </mxGeometry>
                </mxCell>
                <mxCell id="---KHNWKHkRvu1wgQ-nq-41" value="" style="edgeStyle=orthogonalEdgeStyle;rounded=0;orthogonalLoop=1;jettySize=auto;html=1;entryX=0.5;entryY=0;entryDx=0;entryDy=0;" parent="1" source="---KHNWKHkRvu1wgQ-nq-14" target="---KHNWKHkRvu1wgQ-nq-37" edge="1">
                    <mxGeometry relative="1" as="geometry">
                        <mxPoint x="190" y="730" as="targetPoint"/>
                    </mxGeometry>
                </mxCell>
                <mxCell id="---KHNWKHkRvu1wgQ-nq-14" value="Receive an &quot;ok&quot; message from the responsive workers (status code 200)" style="rounded=0;whiteSpace=wrap;html=1;fillColor=#dae8fc;strokeColor=#6c8ebf;" parent="1" vertex="1">
                    <mxGeometry x="85" y="555" width="210" height="80" as="geometry"/>
                </mxCell>
                <mxCell id="---KHNWKHkRvu1wgQ-nq-16" value="" style="endArrow=classic;html=1;rounded=0;exitX=0.5;exitY=1;exitDx=0;exitDy=0;entryX=0.5;entryY=0;entryDx=0;entryDy=0;" parent="1" source="---KHNWKHkRvu1wgQ-nq-4" edge="1">
                    <mxGeometry width="50" height="50" relative="1" as="geometry">
                        <mxPoint x="390" y="350" as="sourcePoint"/>
                        <mxPoint x="475" y="390" as="targetPoint"/>
                    </mxGeometry>
                </mxCell>
                <mxCell id="---KHNWKHkRvu1wgQ-nq-21" value="All workers failed?" style="rhombus;whiteSpace=wrap;html=1;fillColor=#dae8fc;strokeColor=#6c8ebf;" parent="1" vertex="1">
                    <mxGeometry x="386.25" y="540" width="177.5" height="110" as="geometry"/>
                </mxCell>
                <mxCell id="---KHNWKHkRvu1wgQ-nq-22" value="Concurrently, for each worker, wait either for response, timeout or reach max retries" style="rounded=0;whiteSpace=wrap;html=1;fillColor=#dae8fc;strokeColor=#6c8ebf;" parent="1" vertex="1">
                    <mxGeometry x="370" y="390" width="210" height="80" as="geometry"/>
                </mxCell>
                <mxCell id="---KHNWKHkRvu1wgQ-nq-26" value="" style="endArrow=classic;html=1;rounded=0;exitX=0.5;exitY=1;exitDx=0;exitDy=0;entryX=0.5;entryY=0;entryDx=0;entryDy=0;" parent="1" target="---KHNWKHkRvu1wgQ-nq-21" edge="1">
                    <mxGeometry width="50" height="50" relative="1" as="geometry">
                        <mxPoint x="474.5" y="470" as="sourcePoint"/>
                        <mxPoint x="474.5" y="540" as="targetPoint"/>
                    </mxGeometry>
                </mxCell>
                <mxCell id="---KHNWKHkRvu1wgQ-nq-27" value="" style="endArrow=classic;html=1;rounded=0;exitX=1;exitY=0.5;exitDx=0;exitDy=0;entryX=0;entryY=0.5;entryDx=0;entryDy=0;" parent="1" source="---KHNWKHkRvu1wgQ-nq-21" target="---KHNWKHkRvu1wgQ-nq-30" edge="1">
                    <mxGeometry width="50" height="50" relative="1" as="geometry">
                        <mxPoint x="390" y="550" as="sourcePoint"/>
                        <mxPoint x="660" y="595" as="targetPoint"/>
                    </mxGeometry>
                </mxCell>
                <mxCell id="---KHNWKHkRvu1wgQ-nq-31" value="Yes" style="edgeLabel;html=1;align=center;verticalAlign=middle;resizable=0;points=[];" parent="---KHNWKHkRvu1wgQ-nq-27" vertex="1" connectable="0">
                    <mxGeometry x="-0.3506" y="3" relative="1" as="geometry">
                        <mxPoint x="15" y="-7" as="offset"/>
                    </mxGeometry>
                </mxCell>
                <mxCell id="---KHNWKHkRvu1wgQ-nq-28" value="" style="endArrow=classic;html=1;rounded=0;exitX=0;exitY=0.5;exitDx=0;exitDy=0;entryX=1;entryY=0.5;entryDx=0;entryDy=0;" parent="1" source="---KHNWKHkRvu1wgQ-nq-21" target="---KHNWKHkRvu1wgQ-nq-14" edge="1">
                    <mxGeometry width="50" height="50" relative="1" as="geometry">
                        <mxPoint x="574" y="605" as="sourcePoint"/>
                        <mxPoint x="300" y="595" as="targetPoint"/>
                    </mxGeometry>
                </mxCell>
                <mxCell id="---KHNWKHkRvu1wgQ-nq-32" value="No" style="edgeLabel;html=1;align=center;verticalAlign=middle;resizable=0;points=[];" parent="---KHNWKHkRvu1wgQ-nq-28" vertex="1" connectable="0">
                    <mxGeometry x="0.0857" y="-2" relative="1" as="geometry">
                        <mxPoint x="6" y="-8" as="offset"/>
                    </mxGeometry>
                </mxCell>
                <mxCell id="---KHNWKHkRvu1wgQ-nq-30" value="Return error message as JSON-formatted response through the endpoint&amp;nbsp;&lt;u&gt;/v1/chimera/aggregation/fit&lt;/u&gt;" style="rounded=0;whiteSpace=wrap;html=1;fillColor=#dae8fc;strokeColor=#6c8ebf;" parent="1" vertex="1">
                    <mxGeometry x="660" y="555" width="210" height="80" as="geometry"/>
                </mxCell>
                <mxCell id="---KHNWKHkRvu1wgQ-nq-33" value="&lt;font face=&quot;Verdana&quot;&gt;End&lt;/font&gt;" style="ellipse;whiteSpace=wrap;html=1;aspect=fixed;fillColor=#dae8fc;strokeColor=#6c8ebf;" parent="1" vertex="1">
                    <mxGeometry x="435" y="780" width="80" height="80" as="geometry"/>
                </mxCell>
                <mxCell id="---KHNWKHkRvu1wgQ-nq-34" value="" style="endArrow=classic;html=1;rounded=0;exitX=0.5;exitY=1;exitDx=0;exitDy=0;entryX=1;entryY=0.5;entryDx=0;entryDy=0;" parent="1" source="---KHNWKHkRvu1wgQ-nq-30" target="---KHNWKHkRvu1wgQ-nq-33" edge="1">
                    <mxGeometry width="50" height="50" relative="1" as="geometry">
                        <mxPoint x="390" y="750" as="sourcePoint"/>
                        <mxPoint x="765" y="1650" as="targetPoint"/>
                        <Array as="points">
                            <mxPoint x="765" y="820"/>
                        </Array>
                    </mxGeometry>
                </mxCell>
                <mxCell id="---KHNWKHkRvu1wgQ-nq-37" value="Return an JSON-formatted &quot;ok&quot;&amp;nbsp; response through the endpoint&amp;nbsp;&lt;u&gt;/v1/chimera/aggregation/fit&lt;/u&gt;" style="rounded=0;whiteSpace=wrap;html=1;fillColor=#dae8fc;strokeColor=#6c8ebf;" parent="1" vertex="1">
                    <mxGeometry x="85" y="780" width="210" height="80" as="geometry"/>
                </mxCell>
                <mxCell id="---KHNWKHkRvu1wgQ-nq-42" value="" style="endArrow=classic;html=1;rounded=0;exitX=1;exitY=0.5;exitDx=0;exitDy=0;entryX=0;entryY=0.5;entryDx=0;entryDy=0;" parent="1" source="---KHNWKHkRvu1wgQ-nq-37" target="---KHNWKHkRvu1wgQ-nq-33" edge="1">
                    <mxGeometry width="50" height="50" relative="1" as="geometry">
                        <mxPoint x="390" y="750" as="sourcePoint"/>
                        <mxPoint x="440" y="700" as="targetPoint"/>
                    </mxGeometry>
                </mxCell>
                <mxCell id="---KHNWKHkRvu1wgQ-nq-43" value="&lt;font face=&quot;Helvetica&quot; style=&quot;font-size: 18px;&quot;&gt;&lt;i style=&quot;&quot;&gt;&lt;b style=&quot;&quot;&gt;C&lt;/b&gt;&lt;/i&gt;&lt;/font&gt;" style="text;html=1;align=center;verticalAlign=middle;whiteSpace=wrap;rounded=0;" parent="1" vertex="1">
                    <mxGeometry x="330" y="210" width="60" height="30" as="geometry"/>
                </mxCell>
                <mxCell id="---KHNWKHkRvu1wgQ-nq-44" value="&lt;font face=&quot;Helvetica&quot; style=&quot;font-size: 18px;&quot;&gt;&lt;i style=&quot;&quot;&gt;&lt;b style=&quot;&quot;&gt;D&lt;/b&gt;&lt;/i&gt;&lt;/font&gt;" style="text;html=1;align=center;verticalAlign=middle;whiteSpace=wrap;rounded=0;" parent="1" vertex="1">
                    <mxGeometry x="330" y="360" width="60" height="30" as="geometry"/>
                </mxCell>
                <mxCell id="---KHNWKHkRvu1wgQ-nq-46" value="&lt;font face=&quot;Helvetica&quot; style=&quot;font-size: 18px;&quot;&gt;&lt;i style=&quot;&quot;&gt;&lt;b style=&quot;&quot;&gt;F&lt;/b&gt;&lt;/i&gt;&lt;/font&gt;" style="text;html=1;align=center;verticalAlign=middle;whiteSpace=wrap;rounded=0;" parent="1" vertex="1">
                    <mxGeometry x="620" y="530" width="60" height="30" as="geometry"/>
                </mxCell>
                <mxCell id="---KHNWKHkRvu1wgQ-nq-47" value="&lt;font face=&quot;Helvetica&quot; style=&quot;font-size: 18px;&quot;&gt;&lt;i style=&quot;&quot;&gt;&lt;b style=&quot;&quot;&gt;G&lt;/b&gt;&lt;/i&gt;&lt;/font&gt;" style="text;html=1;align=center;verticalAlign=middle;whiteSpace=wrap;rounded=0;" parent="1" vertex="1">
                    <mxGeometry x="50" y="530" width="60" height="30" as="geometry"/>
                </mxCell>
                <mxCell id="---KHNWKHkRvu1wgQ-nq-48" value="&lt;font face=&quot;Helvetica&quot; style=&quot;font-size: 18px;&quot;&gt;&lt;i style=&quot;&quot;&gt;&lt;b style=&quot;&quot;&gt;E&lt;/b&gt;&lt;/i&gt;&lt;/font&gt;" style="text;html=1;align=center;verticalAlign=middle;whiteSpace=wrap;rounded=0;" parent="1" vertex="1">
                    <mxGeometry x="375" y="530" width="60" height="30" as="geometry"/>
                </mxCell>
                <mxCell id="se5KXmX2Rgfp_7TS3Cxt-1" value="&lt;font face=&quot;Helvetica&quot; style=&quot;font-size: 18px;&quot;&gt;&lt;i style=&quot;&quot;&gt;&lt;b style=&quot;&quot;&gt;H&lt;/b&gt;&lt;/i&gt;&lt;/font&gt;" style="text;html=1;align=center;verticalAlign=middle;whiteSpace=wrap;rounded=0;" parent="1" vertex="1">
                    <mxGeometry x="50" y="750" width="60" height="30" as="geometry"/>
                </mxCell>
                <mxCell id="se5KXmX2Rgfp_7TS3Cxt-2" value="&lt;font face=&quot;Helvetica&quot; style=&quot;font-size: 18px;&quot;&gt;&lt;i style=&quot;&quot;&gt;&lt;b style=&quot;&quot;&gt;I&lt;/b&gt;&lt;/i&gt;&lt;/font&gt;" style="text;html=1;align=center;verticalAlign=middle;whiteSpace=wrap;rounded=0;" parent="1" vertex="1">
                    <mxGeometry x="410" y="760" width="60" height="30" as="geometry"/>
                </mxCell>
            </root>
        </mxGraphModel>
    </diagram>
</mxfile>
